<svg width="73" height="56" viewBox="0 0 73 56" fill="none" xmlns="http://www.w3.org/2000/svg">
<g clip-path="url(#clip0_24835_12443)">
<path d="M14.289 14.1931C14.326 14.3573 14.4492 14.3392 14.5748 14.3589C16.5474 14.6661 18.4961 15.1522 20.1147 16.3742C22.846 18.4362 23.3265 22.305 22.4617 25.4445C21.3038 29.6507 17.3053 31.1486 13.3044 31.3564L18.2317 48.7652L24.9656 23.3898C25.1192 23.366 25.2193 23.4908 25.276 23.6123L32.4386 48.3546L32.5996 48.146C33.654 43.6638 34.8948 39.2227 35.9468 34.7406C36.4913 32.4231 37.5301 28.6866 37.0998 26.4061C36.9224 25.465 36.4642 24.5707 35.3958 24.537L35.3941 24.211C35.5707 24.2217 35.7547 24.1938 35.9312 24.2085C37.5244 24.3383 39.1758 24.3481 40.7706 24.2085C40.9201 24.1954 41.0761 24.22 41.2256 24.211C41.297 24.5773 41.118 24.5428 40.9373 24.7029C39.6382 25.8592 38.8309 28.5412 38.3086 30.2042C37.6673 32.2457 37.1261 34.3595 36.566 36.4273C34.8053 42.933 33.1703 49.4755 31.4523 55.9919C31.2561 56.0091 31.3177 56.0058 31.2832 55.8752C29.0084 47.1351 26.4914 38.4557 24.2257 29.7131L17.2454 55.9919L17.0639 55.8876L10.4745 31.4335L10.3086 31.3531C9.21312 31.3383 8.11517 31.3785 7.01967 31.3572C6.88006 31.3547 6.7536 31.2726 6.61399 31.2701C4.41068 31.234 2.20327 31.3022 0.000782013 31.2726L0.00488807 30.8661C1.70644 30.5664 1.93391 28.5306 2.13839 27.1279C2.32152 19.1507 2.16467 11.1357 2.22051 3.14366C2.06859 2.25101 1.91667 1.18343 1.06507 0.68578C0.720984 0.486226 0.230721 0.563419 0.328445 0.0674081C2.99738 0.0427718 5.6696 0.0986141 8.33936 0.070693C11.7211 0.0362021 15.5529 -0.447491 18.4715 1.67452C21.8844 4.15622 21.8729 10.0944 18.4723 12.5851C17.3086 13.4375 15.7105 13.9976 14.289 14.1922V14.1931ZM5.09147 1.2171V13.9048C5.09147 13.9262 5.18344 14.0058 5.2245 14.0181C8.4223 13.8982 12.2335 14.5585 15.0848 12.811C17.5303 11.3122 18.1578 8.05122 17.5361 5.40117C16.3634 0.399998 10.013 0.997019 6.12044 1.21957C5.77964 1.23928 5.43145 1.20068 5.09147 1.2171ZM12.9767 30.1237C15.4888 29.7599 17.8194 28.501 18.8221 26.0751C19.6261 24.1305 19.6417 21.1528 18.8476 19.2024C16.9736 14.5987 9.97767 14.8812 5.8749 15.181C5.61786 15.1999 5.34933 15.1629 5.09229 15.1785L5.08983 25.6514C5.31976 26.866 4.95186 28.6825 5.99398 29.5924C6.33807 29.893 6.68544 30.0096 7.12725 30.1015C8.10695 30.306 9.10472 30.3019 10.1025 30.288C10.1674 30.2264 9.72145 28.7851 9.65247 28.5618C9.29196 27.3965 8.67359 25.4182 7.76204 24.6183C7.62983 24.5025 7.47051 24.5847 7.56331 24.2586C7.59862 24.1338 7.70784 24.1256 7.82446 24.1445C9.5063 24.4212 11.5634 24.3219 13.2666 24.2135C13.4448 24.202 13.6082 24.0944 13.7979 24.1289L13.7897 24.5313C13.7618 24.5699 13.2724 24.7111 13.164 24.7678C12.1219 25.3155 12.2713 26.5276 12.4076 27.5312C12.5267 28.4041 12.7846 29.2664 12.9776 30.1229L12.9767 30.1237ZM57.612 11.814C56.684 11.8698 55.582 11.5011 54.6704 11.8304C54.4561 11.9076 54.5563 12.021 54.2409 11.8099L51.7872 11.8009C51.3059 11.6555 51.9489 10.0771 51.0497 10.3449C50.8699 10.3982 50.4666 11.2523 50.2934 11.4773C50.1743 11.6317 49.8762 11.9446 49.7251 12.0587C49.528 12.2074 48.7339 12.5046 48.7068 12.6007C48.6772 12.7042 48.6928 12.8446 48.7043 12.9547L49.8475 13.1255C49.8302 14.014 49.8688 14.9075 49.8499 15.7969C49.8466 15.9365 49.7653 16.0621 49.7629 16.2026C49.7276 17.9099 49.4106 20.2421 51.6927 20.4367C52.4129 20.4983 53.8607 20.316 54.2861 19.6582C54.4085 19.4693 54.4249 19.1129 54.1621 19.1187C53.9346 19.1236 53.4944 19.4061 53.1684 19.4431C52.091 19.5671 51.3421 19.021 51.2419 17.9312C51.1351 16.7659 51.2476 15.0939 51.324 13.9023C51.3404 13.6387 51.4455 13.3217 51.4447 13.0376C51.6697 12.719 53.8361 12.9612 54.3116 12.866C54.5875 12.7412 54.5374 12.4817 54.53 12.2221C54.7296 12.3806 55.0096 12.4381 55.2174 12.5613C55.6156 12.7978 55.8242 13.4252 55.9893 13.8424C56.4878 15.1062 56.8754 16.4629 57.341 17.7464C57.6038 18.4707 57.9635 19.1992 58.2074 19.9185C58.2575 20.0664 58.3626 20.353 58.3683 20.4893C58.3848 20.8925 57.7188 22.5226 57.5028 22.9545C57.4116 23.1377 57.2613 23.4481 57.0339 23.4768C56.8598 23.4982 56.712 23.3964 56.5452 23.3881C56.3211 23.3767 55.9433 23.361 55.7364 23.4062C55.0424 23.559 55.1147 24.8622 55.8185 25.0183C56.5592 25.1825 57.4576 24.9632 57.8001 24.2389C59.4121 20.7677 60.6316 17.0246 62.2338 13.5624C62.3372 13.3382 62.5146 12.9317 62.6592 12.7559C62.963 12.3864 63.6504 12.356 63.56 11.8173C63.4352 11.7902 63.3293 11.7401 63.1971 11.7278C62.5393 11.6662 61.2212 11.6662 60.5634 11.7278C60.2867 11.7532 60.1183 11.791 60.2062 12.0916C60.2752 12.3281 61.2303 12.4045 61.3896 12.7149C61.4832 12.8964 61.4126 13.2043 61.4249 13.4104L59.6059 18.1611C59.4605 18.4223 59.2585 18.5093 59.1247 18.1833C58.6221 16.9597 58.292 15.6014 57.7524 14.3819C57.6481 13.8769 57.1513 13.1082 57.4486 12.6377C57.6276 12.3544 58.3092 12.2115 58.6369 12.2246C58.6976 11.5455 58.0251 11.7927 57.6136 11.8173L57.612 11.814ZM64.079 40.5695C64.9183 41.0516 66.8071 40.8988 67.6899 40.5342C68.9242 40.0251 69.3052 38.8277 69.1418 37.5598C68.9579 36.1317 66.4803 35.437 65.4915 34.6404C64.8066 34.0893 64.6383 33.2312 65.4086 32.6687C66.0918 32.1694 67.2374 32.5052 67.7055 33.1655C67.9338 33.4874 67.9609 33.9867 68.4446 34.0647C68.7616 33.9982 68.668 32.4584 68.53 32.1759C68.42 31.9509 67.9543 31.7867 67.7113 31.7629C67.0436 31.6972 65.8841 31.7177 65.2632 31.9476C64.0889 32.3829 63.4886 33.4324 63.6479 34.6765C63.8647 36.3731 67.2703 36.9775 67.6299 38.2496C67.8566 39.0503 67.2735 39.9865 66.4589 40.1244C65.4702 40.292 64.9027 39.8838 64.4494 39.0486C64.3196 38.8105 63.9854 37.729 63.606 38.3383C63.2652 38.8852 63.6167 39.6662 63.6438 40.2238C63.1207 39.9282 62.6501 39.8033 62.1246 39.4026C61.135 38.6479 59.8966 37.4448 58.9604 36.5719C58.7937 36.4167 58.0686 35.7277 58.0546 35.5831L58.2263 35.2588C59.4285 34.6461 60.5454 33.7141 61.7279 33.094C62.1525 32.8715 62.7758 32.7467 63.1264 32.5217C63.2053 32.4707 63.3523 32.4215 63.3145 32.3007C63.1995 31.9353 62.6781 32.1677 62.4555 32.1792C61.539 32.2252 60.6439 32.0601 59.743 32.0076C59.5796 31.9977 59.2503 32.0922 59.2947 32.2917C59.3751 32.6539 60.4665 32.6473 59.8662 33.4496C59.6018 33.8027 57.5997 35.0132 57.1004 35.2826C56.8277 35.4296 56.5765 35.5938 56.2521 35.5437L56.4853 25.9897L56.2283 25.7861C55.6263 26.0021 54.9644 26.1105 54.3616 26.3043C54.0479 26.4053 53.6094 26.5473 53.8665 26.9514C53.9083 27.0171 54.3083 27.1862 54.4397 27.2971C54.9373 27.7159 54.9767 28.4829 54.9406 29.1005C54.8174 31.2036 54.81 33.3905 54.7714 35.501C54.7517 36.594 54.8798 37.9006 54.7764 38.955C54.6729 40.0095 54.0948 39.7163 53.5101 40.0702C53.1044 40.3158 53.6201 40.549 53.9124 40.5597C54.2861 40.5736 54.9012 40.4053 55.3044 40.3856C55.6822 40.3675 57.3591 40.7806 57.4822 40.3461C57.589 39.9676 56.6348 39.7754 56.413 39.5307C56.2504 39.3508 56.1494 38.9435 56.1658 38.7054C56.1757 38.5649 56.2488 38.4385 56.2545 38.298C56.2833 37.5746 56.2283 36.8429 56.2521 36.1194L56.7078 36.1974L60.1545 39.4847C60.4189 39.9971 59.5271 40.0012 59.2125 40.1474C59.201 40.2714 59.178 40.4455 59.2864 40.517C59.3998 40.5917 60.7934 40.5662 61.0586 40.5564C61.792 40.5301 62.0786 40.5794 62.7856 40.6311C63.2611 40.6656 63.6701 40.7855 63.643 40.2254C63.8113 40.3207 63.9025 40.4693 64.0782 40.5703L64.079 40.5695ZM41.3241 18.1579C41.2986 18.0421 41.2313 17.6175 41.2313 17.5181C41.2313 17.4056 41.3101 17.2742 41.311 17.1108C41.3134 15.4709 41.3093 13.8301 41.297 12.1901C41.1738 11.7803 39.5922 11.8986 39.2087 11.8961C39.0526 11.8953 38.7389 11.8025 38.61 11.906C38.5747 11.9347 38.4975 12.1491 38.5501 12.2238C38.7332 12.4817 39.5864 12.2796 39.731 12.935C40.0447 15.2894 38.6355 20.3874 42.2471 20.6018C43.001 20.6461 43.8074 20.2897 44.4546 19.9276C44.6525 19.8167 45.3456 19.301 45.454 19.2837C45.6305 19.2558 45.5566 19.3084 45.5755 19.4077C45.5911 19.4915 45.6379 19.6147 45.6379 19.6689C45.6363 19.9325 45.4605 20.2142 45.7931 20.4236C46.0888 20.5139 47.144 20.2002 47.5292 20.1271C47.7591 20.0836 48.669 20.0089 48.7659 19.9284C48.8563 19.8528 48.8571 19.5383 48.7659 19.4619C48.7364 19.4373 48.4071 19.37 48.3307 19.3642C47.8018 19.3199 47.2762 19.5909 47.1555 18.8969C47.0167 18.0987 47.1194 16.5072 47.1334 15.6269C47.1366 15.4413 47.2188 15.2951 47.222 15.1407C47.2385 14.2226 47.2935 13.0729 47.2229 12.1786C47.2007 11.9019 46.9543 11.7984 46.6924 11.8132C45.9171 11.8584 45.0746 11.8189 44.301 11.8912C44.0251 11.9167 43.8559 11.9553 43.9438 12.255C44.0571 12.6401 45.5722 12.3158 45.7258 13.0195C45.7398 13.7529 45.7611 14.4912 45.7455 15.2245C45.7414 15.4101 45.6617 15.5538 45.6568 15.7107C45.6108 17.1519 46.0691 19.1885 44.0604 19.37C43.3755 19.4316 42.2644 19.4299 41.7405 18.9347C41.5853 18.7877 41.3717 18.3747 41.3249 18.1595L41.3241 18.1579ZM38.8211 19.5079C38.7348 19.5933 38.3341 19.866 38.215 19.9284C37.7354 20.1789 36.9134 20.2166 36.4658 19.8972C36.286 19.7683 35.7456 19.0924 35.6077 19.1236C34.7528 19.8799 33.3436 20.7537 32.1709 20.3324C30.8808 19.8693 30.8578 18.134 31.6174 17.1905C32.2218 16.4399 33.2689 15.8092 34.1632 15.4659C34.4941 15.3386 35.6471 15.0857 35.7662 14.8517C35.8039 14.7786 35.8031 14.7252 35.8097 14.6488C35.8409 14.2776 35.8622 13.178 35.7908 12.8537C35.7505 12.6722 35.4229 12.324 35.2554 12.2394C34.4218 11.8181 33.4167 12.1441 32.8944 12.8832C32.5396 13.385 32.5388 14.3228 31.8851 14.5839C31.3275 14.8057 30.8052 14.6078 30.999 13.9434C31.2585 13.054 32.8656 11.8526 33.7328 11.5857C35.0591 11.1776 36.8198 11.2622 37.1844 12.8561C37.4718 14.1109 37.1433 15.6992 37.1983 17.0303C37.2057 17.2143 37.2755 17.3539 37.287 17.5165C37.315 17.9107 37.1639 18.4198 37.4874 18.7122C37.7026 18.9068 38.1041 18.9167 38.3776 18.8584C38.6182 18.8066 39.0395 18.3426 39.1635 18.7639C39.2234 18.9676 38.9681 19.3634 38.8227 19.5087L38.8211 19.5079ZM35.7161 15.5957C34.2888 15.5571 32.2423 17.0517 32.8689 18.6481C33.2081 19.512 34.3906 19.3782 35.041 18.9725C35.3482 18.7803 35.565 18.4757 35.6824 18.1357C35.854 17.6413 35.8581 16.4974 35.808 15.9554C35.7957 15.8264 35.7514 15.7164 35.7161 15.5957ZM42.1888 31.7037C48.6436 30.8061 48.9679 41.5344 42.3309 40.9662C37.4119 40.5449 37.4603 32.3607 42.1888 31.7037ZM42.2685 32.194C40.3058 32.5175 40.0332 35.8344 40.3419 37.3709C40.585 38.5822 41.522 40.4989 42.9928 40.3913C45.0352 40.241 45.8071 37.5417 45.6617 35.8287C45.5164 34.1156 44.2033 31.8754 42.2685 32.194ZM26.7517 11.2572C28.4451 11.0815 30.0004 12.1285 30.4299 13.7783C30.5433 14.2128 30.728 14.8706 30.0932 14.933C29.9093 14.951 29.7738 14.8533 29.6079 14.8467C28.5181 14.8024 27.4038 14.8016 26.323 14.7646C26.0422 14.7548 24.9664 14.7211 24.7997 14.8065C24.4975 14.9617 24.5287 15.6565 24.5525 15.9603C24.6355 17.032 25.0838 18.2548 26.0397 18.8255C26.741 19.2443 27.6345 19.3519 28.4196 19.1647C28.8548 19.0612 29.6268 18.5488 29.9372 18.543C30.5933 18.5307 29.5291 19.558 29.3591 19.6943C27.5376 21.1536 24.8884 20.555 23.7182 18.6013C22.1497 15.9816 23.4094 11.6038 26.7517 11.2572ZM27.1615 11.8321C26.5431 11.9011 25.8665 12.2911 25.4575 12.7551C25.1651 13.0869 24.4499 14.2128 25.2481 14.2785C26.0463 14.3442 27.3726 14.3179 28.1092 14.175C28.9337 14.0157 29.2293 13.5041 28.9517 12.7099C28.7259 12.0645 27.7889 11.7623 27.1615 11.8321ZM50.2581 31.7251C50.2581 31.7095 50.0897 31.5428 50.0388 31.528C49.6619 31.4188 49.0238 32.4346 48.7388 32.6695C48.49 32.8748 48.1549 32.9602 47.9652 33.2139C47.8831 33.5005 48.5343 33.7543 48.6871 34.0351C48.7635 34.1764 48.8406 34.5238 48.8563 34.6872C48.963 35.7638 48.9408 37.6945 48.8645 38.79C48.8521 38.9665 48.8004 39.341 48.7643 39.511C48.6748 39.9347 47.9849 40.0012 47.6433 40.1556C47.4766 40.5071 47.7008 40.7945 48.081 40.7929C48.4612 40.7912 49.0607 40.5802 49.4754 40.5506C50.1373 40.503 51.0259 40.5235 51.6976 40.5506C51.8405 40.5564 51.9678 40.6459 52.1017 40.6377C52.2971 40.6254 52.5911 40.434 52.4375 40.2213C51.9177 39.9585 51.1803 40.0152 50.6448 39.7968C50.4141 39.7031 50.3722 39.4198 50.3377 39.2006C50.4428 37.7478 50.2022 36.1177 50.3459 34.6872C50.3788 34.3628 50.5085 33.8348 50.7483 33.6114C51.4045 32.9988 52.2232 33.8849 52.9212 33.8159C53.7047 33.7387 54.0044 33.2361 53.6677 32.5044C53.2366 31.5682 51.8824 31.7941 51.2033 32.341C51.053 32.4617 50.4215 33.2468 50.2589 33.0801V31.7251H50.2581ZM71.093 38.0254C72.0119 37.8686 72.8151 38.6742 72.659 39.5915C72.4537 40.7953 70.7998 41.1345 70.1971 40.1179C69.6937 39.2687 70.0961 38.1954 71.093 38.0254ZM71.0092 38.2693C69.9162 38.5009 69.9523 40.2993 71.0774 40.4685C72.9407 40.7485 72.8487 37.8792 71.0092 38.2693ZM70.8466 38.6553C70.9435 38.6356 71.0823 38.6249 71.2137 38.6249C71.4182 38.6249 71.5504 38.6627 71.6424 38.7456C71.7171 38.8113 71.759 38.9131 71.759 39.0273C71.759 39.2227 71.6358 39.3525 71.4798 39.4059V39.4124C71.5939 39.4519 71.6621 39.5578 71.6974 39.7114C71.7459 39.9183 71.7812 40.0612 71.8116 40.1179H71.6136C71.5898 40.076 71.5562 39.9487 71.5143 39.7639C71.4699 39.5594 71.3911 39.4822 71.217 39.4757H71.0363V40.1179H70.845V38.6553H70.8466ZM71.038 39.3303H71.2334C71.4379 39.3303 71.5677 39.2178 71.5677 39.0486C71.5677 38.8573 71.4289 38.7735 71.2269 38.7719C71.1349 38.7719 71.0684 38.7809 71.038 38.7891V39.3303Z" fill="white"/>
</g>
<defs>
<clipPath id="clip0_24835_12443">
<rect width="72.6788" height="56" fill="white"/>
</clipPath>
</defs>
</svg>
