<svg width="73" height="56" viewBox="0 0 73 56" fill="none" xmlns="http://www.w3.org/2000/svg">
<g clip-path="url(#clip0_24835_12238)">
<path d="M38.5637 0.640886C38.7061 0.364197 38.8215 0.139941 38.9391 0.121909V0.120748C39.0549 0.101941 39.2081 0.30009 39.362 0.499112C39.5239 0.708442 39.6865 0.918739 39.8071 0.878582C39.9088 0.844194 40.0273 0.701055 40.1552 0.546694C40.3402 0.323367 40.5447 0.076552 40.7454 0.101599C40.8925 0.121038 41.4708 1.27897 41.4708 1.27897C45.537 1.48024 50.4348 5.80527 52.109 7.28371C52.3535 7.49954 52.5292 7.65471 52.6236 7.72752C52.6775 7.76937 52.7579 7.84072 52.8651 7.93587C53.4656 8.46873 54.9073 9.74813 57.246 10.7739C58.3801 11.2715 59.5186 11.4854 60.5756 11.4067C61.9845 11.3058 63.5605 10.0683 64.5298 8.38323C64.8557 7.8176 65.1314 7.13943 65.4281 6.4096C66.2373 4.41895 67.2027 2.04403 69.7694 0.520556C70.2588 0.22984 71.3727 -0.421224 72.0156 0.39928C72.5326 1.06398 72.1067 2.1604 71.5671 2.68642C71.2262 3.01833 70.607 3.35344 69.4349 3.90702C69.0362 4.09793 68.386 4.58303 68.1327 4.78091C66.8973 5.72277 65.9956 7.84112 65.0017 10.1761C64.9837 10.2184 64.9657 10.2607 64.9476 10.3031C64.9476 10.3031 64.5148 11.4758 62.6068 12.7361C62.3549 12.8996 62.4799 13.0446 62.7149 13.3171C62.7789 13.3913 62.851 13.475 62.926 13.5711C63.3754 14.1656 64.2748 16.5851 64.1588 20.2698C64.143 20.8012 64.3146 21.0884 64.539 21.4639C64.591 21.551 64.6459 21.6427 64.7019 21.7434C64.914 22.1224 65.2105 22.3112 65.4847 22.4857C65.8788 22.7366 66.2268 22.9581 66.212 23.6731C66.1935 24.5313 66.5196 25.0331 66.7751 25.4262C67.0037 25.7779 67.1757 26.0426 66.994 26.3977C66.7701 26.8317 66.7863 27.2556 66.8025 27.6791C66.8067 27.7891 66.8109 27.8991 66.8109 28.0092C66.8109 28.0548 66.8151 28.104 66.8193 28.154C66.8402 28.4005 66.863 28.6684 66.3983 28.6443C64.1416 28.5073 64.262 25.5169 64.3059 24.4257C64.3065 24.4116 64.3071 24.3977 64.3076 24.3842C64.3436 24.2444 64.2388 23.9945 64.2206 23.9832C64.1071 23.9003 62.6834 22.7934 62.5888 22.6991C60.8585 20.9403 59.7185 19.3602 59.0823 17.7346C58.6607 16.6518 58.2267 15.5847 57.4848 14.8985C56.653 14.1395 55.6337 13.7121 54.7395 13.7075C49.5814 13.68 47.7463 11.8407 46.3138 10.4048C45.9799 10.0702 45.668 9.75749 45.3409 9.49474C45.2887 9.45615 45.1297 9.3665 45.0389 9.35953C44.9677 9.36402 44.9076 9.42731 44.856 9.48169C44.8374 9.50118 44.82 9.51953 44.8036 9.53361C44.1354 10.2337 43.4626 10.462 42.5582 10.462C41.3482 10.462 40.0866 9.86501 39.1425 9.41818C38.41 9.07154 37.8685 8.81528 37.6903 8.99831C37.5639 9.13133 37.5334 9.32143 37.5035 9.50786C37.4598 9.7805 37.4173 10.0453 37.0778 10.1121C36.2515 10.2787 35.3959 9.46195 35.4641 8.76998C35.588 7.53255 36.855 7.17017 37.9654 7.04396C38.6957 6.96659 39.3172 7.10961 39.6296 7.18151C39.7109 7.2002 39.7712 7.21409 39.8071 7.21804C40.3198 7.28971 40.4095 6.6694 40.3253 6.2693C40.236 5.86334 39.8765 5.75763 39.4844 5.64239C39.4573 5.63442 39.43 5.6264 39.4027 5.61824C39.1311 5.53724 38.8436 5.618 38.5763 5.69312C38.337 5.76035 38.1137 5.82307 37.9323 5.76127C37.6364 5.65521 37.5194 5.51968 37.3683 5.34469C37.2896 5.25353 37.2017 5.15166 37.0744 5.03767C36.9331 4.91495 36.7854 4.81882 36.6475 4.7291C36.3206 4.51636 36.049 4.33963 36.0505 3.92965C36.0505 3.63229 36.2499 3.4853 36.4602 3.33035C36.6315 3.20409 36.81 3.07254 36.8936 2.85005C36.9402 2.72788 36.9574 2.60317 36.973 2.49001C36.989 2.37393 37.0033 2.27002 37.0459 2.19348C37.1729 1.9617 37.3638 1.86941 37.5666 1.77139C37.718 1.69825 37.8759 1.62192 38.0187 1.48206C38.2481 1.25406 38.4197 0.920669 38.5637 0.640886Z" fill="white"/>
<path d="M17.6118 33.0044C17.6118 33.4498 17.9855 33.8098 18.4242 33.8203V33.8214C18.8637 33.811 19.2366 33.4509 19.2366 33.0056L19.2412 18.4698H24.0284L24.0284 34.4916C24.0294 34.6783 23.9936 34.8632 23.923 35.036C23.8524 35.2087 23.7484 35.3658 23.617 35.4983C23.4856 35.6308 23.3293 35.7361 23.1572 35.8081C22.985 35.8801 22.8003 35.9174 22.6137 35.9179L14.2378 35.9179C13.4574 35.9179 12.8211 35.277 12.8211 34.4916L12.8211 18.4686H17.6118V33.0044Z" fill="white"/>
<path d="M27.2135 18.4698L41.7162 18.4698C41.9213 18.4702 42.1242 18.5111 42.3134 18.59C42.5027 18.6688 42.6745 18.7842 42.8192 18.9295C42.9638 19.0748 43.0784 19.2472 43.1565 19.4368C43.2345 19.6264 43.2744 19.8295 43.274 20.0345L43.274 35.9191H38.4798L38.4798 21.3482C38.4774 21.1346 38.3907 20.9306 38.2385 20.7807C38.0863 20.6308 37.881 20.5472 37.6674 20.548C37.2197 20.548 36.8605 20.8936 36.855 21.3355L36.855 35.9191H32.0797L32.0797 21.3357C32.0744 21.1224 31.9855 20.9197 31.8321 20.7713C31.6788 20.6228 31.4733 20.5406 31.2599 20.5422C31.0465 20.5439 30.8422 20.6292 30.6912 20.78C30.5401 20.9308 30.4544 21.1348 30.4523 21.3482L30.4523 35.9188L25.6567 35.9188L25.6567 20.0345C25.6561 19.8295 25.6959 19.6264 25.7739 19.4368C25.8518 19.2472 25.9663 19.0749 26.1109 18.9296C26.2555 18.7843 26.4273 18.6689 26.6165 18.59C26.8057 18.5111 27.0086 18.4702 27.2135 18.4698Z" fill="white"/>
<path fill-rule="evenodd" clip-rule="evenodd" d="M4.78725 31.5334L9.627 31.5334C9.83345 31.5339 10.038 31.4941 10.2288 31.4153C10.4196 31.3364 10.5929 31.2207 10.7388 31.0746C10.8848 30.9286 11.0004 30.7551 11.079 30.5642C11.1577 30.3733 11.1979 30.1688 11.1972 29.9623L11.1972 20.0414C11.1972 19.1722 10.5224 18.4698 9.65775 18.4698L2.17435e-05 18.4698L2.09808e-05 35.9185H4.78725L4.78725 31.5334ZM6.35363 21.0634C6.39374 21.1636 6.41368 21.2708 6.4123 21.3787L6.4123 28.5546C6.41357 28.662 6.39348 28.7685 6.35319 28.868C6.3129 28.9676 6.25322 29.0581 6.17762 29.1343C6.10202 29.2106 6.01201 29.271 5.91283 29.3122C5.81366 29.3533 5.70729 29.3743 5.59992 29.3739H4.7861L4.7861 20.548H5.59992C5.70785 20.549 5.81453 20.5714 5.91382 20.6137C6.01311 20.656 6.10308 20.7175 6.17855 20.7947C6.25402 20.8719 6.31351 20.9632 6.35363 21.0634Z" fill="white"/>
<path fill-rule="evenodd" clip-rule="evenodd" d="M60.1713 35.0941H60.7429L59.9453 34.058L59.9792 34.0456C60.2714 33.9605 60.4803 33.6751 60.4803 33.3536C60.4803 32.8717 60.1263 32.6195 59.459 32.6195H58.9693V35.0941H59.4361V34.1158L60.1713 35.0941ZM60.0236 33.3603C60.0236 33.5964 59.8487 33.7148 59.5156 33.7148L59.4349 33.7139V33.0411H59.5304C59.8545 33.0411 60.0236 33.1499 60.0236 33.3603Z" fill="white"/>
<path fill-rule="evenodd" clip-rule="evenodd" d="M59.7368 35.9998C60.913 35.9998 61.8629 35.0359 61.8629 33.851C61.8629 32.6519 60.913 31.704 59.7017 31.704C58.5481 31.704 57.5939 32.6815 57.5939 33.851C57.5926 34.1331 57.6471 34.4126 57.7543 34.6735C57.8615 34.9344 58.0192 35.1715 58.2184 35.3712C58.4175 35.5709 58.6542 35.7292 58.9148 35.8371C59.1754 35.945 59.4548 36.0003 59.7368 35.9998ZM57.9362 33.8565C57.9362 32.8486 58.7437 32.0168 59.7061 32.0168H59.7374C60.7227 32.0168 61.5203 32.8451 61.5203 33.8565C61.5203 34.868 60.7238 35.6928 59.7374 35.6928C58.7443 35.6928 57.9362 34.8645 57.9362 33.8565Z" fill="white"/>
<path fill-rule="evenodd" clip-rule="evenodd" d="M51.3134 31.5394L51.3134 35.9204L56.1007 35.9189L56.1007 20.0347C56.1012 19.8297 56.0614 19.6266 55.9834 19.4369C55.9054 19.2473 55.7909 19.0749 55.6462 18.9296C55.5016 18.7843 55.3297 18.6689 55.1404 18.59C54.9512 18.5112 54.7482 18.4704 54.5432 18.47L46.458 18.47C46.253 18.4705 46.0501 18.5113 45.8609 18.5902C45.6718 18.6691 45.5 18.7845 45.3554 18.9298C45.2109 19.0751 45.0964 19.2475 45.0184 19.4371C44.9405 19.6267 44.9008 19.8297 44.9014 20.0347L44.9014 35.9204H49.6863L49.6863 31.5394H51.3134ZM51.3134 21.3426L51.3134 29.3785L49.6863 29.3773L49.6863 21.3551C49.6901 21.1429 49.7767 20.9406 49.9275 20.7913C50.0783 20.642 50.2815 20.5575 50.4938 20.5559C50.706 20.5543 50.9105 20.6356 51.0636 20.7826C51.2167 20.9295 51.3063 21.1305 51.3134 21.3426Z" fill="white"/>
</g>
<defs>
<clipPath id="clip0_24835_12238">
<rect width="73" height="56" fill="white"/>
</clipPath>
</defs>
</svg>
