<svg width="160" height="32" viewBox="0 0 160 32" fill="none" xmlns="http://www.w3.org/2000/svg">
<g clip-path="url(#clip0_24835_12360)">
<path d="M147.949 18.0117C148.333 16.0813 149.845 14.8113 151.776 14.8113C153.706 14.8113 155.163 16.1151 155.439 18.0117H147.949ZM151.99 28.6404C155.084 28.6404 157.703 27.3534 159.052 25.1012L155.377 23.0805C154.609 24.153 153.402 24.644 152.053 24.644C149.845 24.644 148.344 23.295 147.949 21.4267H159.848C159.938 20.9186 160 20.2639 160 19.5865C160 14.5008 156.495 10.8432 151.686 10.8432C146.876 10.8432 143.264 14.4274 143.264 19.7107C143.264 24.994 146.543 28.6404 151.996 28.6404M135.463 28.1832H140.165V3.67459H135.463V28.1832ZM133.092 27.788L131.727 23.8369C131.162 24.0965 130.519 24.2376 129.886 24.2376C128.413 24.2376 127.437 23.47 127.437 21.6807V15.6015H131.529L133.047 11.3116H128.588L127.437 14.5573V7.03874H122.735V22.5669C122.735 26.2753 124.908 28.646 128.848 28.646C130.394 28.646 131.913 28.3412 133.092 27.788ZM114.33 18.9148V28.1832H119.032V18.0907C119.032 13.1743 116.153 10.8432 112.4 10.8432C110.576 10.8432 108.94 11.4584 107.545 12.6946V3.67459H102.843V28.1832H107.545V16.6796C108.511 15.8386 109.718 15.3644 111.147 15.3644C113.184 15.3644 114.33 16.5611 114.33 18.9205M95.72 28.6404C97.3457 28.6404 98.8923 28.2396 100.179 27.5058L98.4802 23.3571C97.7464 23.9103 96.8264 24.1981 95.8442 24.1981C93.3606 24.1981 91.5092 22.3467 91.5092 19.7389C91.5092 17.1312 93.2872 15.2798 95.7991 15.2798C96.8094 15.2798 97.6956 15.5846 98.4181 16.1208L100.151 11.9721C98.8471 11.2383 97.3174 10.8206 95.6918 10.8206C90.6061 10.8206 86.7622 14.6984 86.7622 19.7333C86.7622 24.7682 90.64 28.6347 95.72 28.6347M72.3573 18.0117C72.7411 16.0813 74.2539 14.8113 76.1843 14.8113C78.1147 14.8113 79.571 16.1151 79.8476 18.0117H72.3573ZM76.4044 28.6404C79.4976 28.6404 82.1167 27.3534 83.4657 25.1012L79.7912 23.0805C79.0235 24.153 77.8156 24.644 76.4665 24.644C74.2595 24.644 72.7581 23.295 72.3629 21.4267H84.2616C84.3519 20.9186 84.414 20.2639 84.414 19.5865C84.414 14.5008 80.9088 10.8432 76.0996 10.8432C71.2905 10.8432 67.678 14.4274 67.678 19.7107C67.678 24.994 70.9575 28.6404 76.4101 28.6404M52.4942 22.6233V16.8489C53.4876 15.8668 54.7633 15.3306 56.276 15.3306C58.8499 15.3306 60.4417 16.8941 60.4417 19.7277C60.4417 22.5612 58.8499 24.1417 56.276 24.1417C54.7576 24.1417 53.4876 23.6054 52.4942 22.6233ZM57.6081 28.6291C62.2366 28.6291 65.1887 24.8585 65.1887 19.7277C65.1887 14.5968 62.231 10.8432 57.6081 10.8432C55.6495 10.8432 53.9335 11.5149 52.4942 12.8808V3.67459H47.7923V28.1832H51.3145L52.02 26.1173C53.5497 27.7993 55.435 28.6291 57.6081 28.6291ZM15.9289 0C15.3193 0 14.7266 0.0451563 14.1339 0.112891L10.956 9.33606H25.9141C26.0947 9.33606 26.2189 9.49411 26.1568 9.66345L18.5987 31.6263C26.1286 30.3563 31.8634 23.8143 31.8634 15.9232C31.8578 7.12905 24.7231 0 15.9289 0ZM20.8566 22.533H5.90983C5.7292 22.533 5.60502 22.358 5.66147 22.1887L13.2195 0.231426C5.73485 1.53531 0 8.06604 0 15.9289C0 24.7231 7.12905 31.8578 15.9289 31.8578C16.5216 31.8578 17.1029 31.8126 17.6787 31.7505L20.8566 22.533Z" fill="white"/>
</g>
<defs>
<clipPath id="clip0_24835_12360">
<rect width="160" height="31.8578" fill="white"/>
</clipPath>
</defs>
</svg>
