<svg width="136" height="32" viewBox="0 0 136 32" fill="none" xmlns="http://www.w3.org/2000/svg">
<g clip-path="url(#clip0_24835_12408)">
<path d="M121.053 20.5149C121.819 20.5149 122.494 21.0077 122.74 21.7454C122.954 22.3887 123.562 28.8211 123.562 29.429C123.562 30.8116 122.439 31.9329 121.053 31.9329C119.668 31.9327 118.544 30.811 118.544 29.429C118.545 28.8212 119.152 22.3906 119.366 21.7454C119.611 21.0083 120.288 20.515 121.053 20.5149ZM115.224 17.4143C115.987 17.2575 116.753 17.5962 117.135 18.2571C117.518 18.9186 117.428 19.7492 116.911 20.3303C116.457 20.8386 111.18 24.579 110.654 24.8821C109.454 25.5739 107.92 25.1633 107.227 23.9661C106.534 22.7691 106.945 21.238 108.145 20.5461C108.67 20.2432 114.559 17.5505 115.224 17.4143ZM124.971 18.2571C125.354 17.5955 126.12 17.2573 126.882 17.4143C127.548 17.5507 133.435 20.2436 133.961 20.5461C135.161 21.2375 135.572 22.7686 134.879 23.9661C134.187 25.1628 132.652 25.5739 131.453 24.8821C130.927 24.5793 125.649 20.8385 125.196 20.3303C124.679 19.7503 124.589 18.9186 124.971 18.2571ZM107.227 8.03345C107.919 6.83632 109.453 6.42624 110.653 7.11743C111.179 7.42022 116.458 11.1617 116.911 11.6692C117.428 12.2498 117.518 13.0814 117.135 13.7424C116.753 14.4044 115.987 14.7415 115.224 14.5852C114.559 14.4484 108.67 11.7562 108.144 11.4534C106.945 10.7625 106.534 9.23088 107.227 8.03345ZM131.453 7.11743C132.652 6.42617 134.186 6.8363 134.879 8.03345C135.572 9.23039 135.161 10.762 133.961 11.4534C133.435 11.7569 127.549 14.4482 126.882 14.5852C126.12 14.7417 125.354 14.404 124.971 13.7424C124.589 13.0814 124.679 12.2504 125.196 11.6692C125.648 11.1618 130.925 7.42134 131.453 7.11743ZM121.053 0.0666504C122.439 0.0666504 123.562 1.18814 123.562 2.57056C123.562 3.17719 122.954 9.61119 122.74 10.2551C122.494 10.9921 121.819 11.4846 121.053 11.4846C120.288 11.4845 119.611 10.9927 119.366 10.2551C119.152 9.61109 118.545 3.17666 118.544 2.57056C118.544 1.18768 119.668 0.0667726 121.053 0.0666504Z" fill="white"/>
<path d="M29.2625 10.2423C33.1758 10.2423 35.2762 12.0123 35.2762 15.9991V24.6817H30.8387V22.8692C30.1653 24.138 28.9358 25.0821 26.8777 25.0821C24.4203 25.0821 22.7254 23.5956 22.7254 21.0479C22.7256 18.2888 24.5871 17.1322 27.8074 16.4718C29.9318 16.0237 30.6951 15.7396 30.6951 15.0323C30.6951 14.2063 30.1461 13.8048 28.6678 13.8048C26.2811 13.8048 24.4678 14.9134 23.6092 15.6681V11.8936C24.3029 11.2535 26.1283 10.3619 28.7332 10.253L29.2625 10.2423ZM71.618 10.2423C75.5313 10.2423 77.6317 12.0123 77.6317 15.9991V24.6817H73.1942V22.8692C72.5208 24.138 71.2913 25.0821 69.2332 25.0821C66.7758 25.0821 65.0809 23.5956 65.0809 21.0479C65.0811 18.2888 66.9426 17.1322 70.1629 16.4718C72.2873 16.0237 73.0506 15.7396 73.0506 15.0323C73.0506 14.2063 72.5016 13.8048 71.0233 13.8048C68.6368 13.8049 66.8236 14.9134 65.9647 15.6681V11.8936C66.6586 11.2535 68.4839 10.3619 71.0887 10.253L71.618 10.2423ZM94.3367 7.97665V10.6905H97.2713V14.2296H94.3348V19.3731C94.3348 20.8578 95.0042 21.3061 96.0291 21.2833C96.578 21.2833 97.0089 21.1417 97.2713 20.9522V24.4679C96.9378 24.6797 96.1742 24.963 94.742 24.963C91.6631 24.963 89.7314 23.3828 89.7313 20.0089V7.97665H94.3367ZM60.0242 10.2892C62.673 10.2892 64.0808 12.2709 64.0809 15.2198V24.6847H59.4754V15.8595C59.4754 14.6797 59.0935 13.925 57.9725 13.9249C56.5893 13.9249 55.9451 15.0109 55.9451 16.921V24.6827H51.3397V15.8585C51.3396 14.6786 50.9565 13.9239 49.8358 13.9239C48.4529 13.9242 47.8084 15.0096 47.8084 16.92V24.6808H43.2029V10.6905H47.7361V13.2433C48.44 11.5179 49.8286 10.2893 51.9588 10.2892C53.8401 10.2892 55.1865 11.4912 55.5916 13.3858C56.3462 11.6174 57.7898 10.2893 60.0242 10.2892ZM88.4901 10.5958V15.4093C88.2512 15.3374 87.7264 15.2667 87.1776 15.2667C85.531 15.2667 83.8134 15.999 83.8133 18.7354V24.6817H79.2078V10.6905H83.7176V14.6427C84.3248 12.1084 85.8991 10.4729 88.4901 10.5958ZM6.99103 18.5694L9.61505 6.98544H14.1727L16.7967 18.5694L19.1356 6.98544H23.5731L19.8035 24.6798H14.5067L11.8582 12.9317L9.20978 24.6798H3.79376L-0.000183105 6.98544H4.65314L6.99103 18.5694ZM41.5428 24.6798H36.9373V6.98544H41.5428V24.6798ZM30.6727 17.9337C30.2686 18.2828 29.67 18.5135 29.0731 18.7354C27.9279 19.1367 27.0215 19.5847 27.0213 20.7169C27.0213 21.5346 27.5239 22.1456 28.452 22.2188L28.6443 22.2267C29.8842 22.2267 30.6725 21.3779 30.6727 19.8917V17.9337ZM73.0291 17.9337C72.6251 18.2828 72.0274 18.5135 71.4305 18.7354C70.2853 19.1367 69.378 19.5847 69.3777 20.7169C69.3777 21.5891 69.9503 22.2266 70.9998 22.2267C72.2413 22.2267 73.029 21.3779 73.0291 19.8917V17.9337Z" fill="white"/>
</g>
<defs>
<clipPath id="clip0_24835_12408">
<rect width="135.216" height="32" fill="white"/>
</clipPath>
</defs>
</svg>
