<svg xmlns="http://www.w3.org/2000/svg" viewBox="0 0 200 200" fill="none" stroke="#ffffff" stroke-width="9" stroke-linecap="round" stroke-linejoin="round">
    <path d="M79 50 L79 86 L51 142 Q45 158 61 158 L119 158 Q135 158 129 142 L101 86 L101 50"/>
    <line x1="69" y1="50" x2="111" y2="50"/>
    <circle cx="80" cy="128" r="6"/>
    <circle cx="100" cy="140" r="4"/>
    <g stroke-width="8">
      <circle cx="152" cy="60" r="15"/>
      <circle cx="152" cy="60" r="4"/>
      <line x1="167.0" y1="60.0" x2="175.0" y2="60.0"/><line x1="162.6" y1="70.6" x2="168.3" y2="76.3"/><line x1="152.0" y1="75.0" x2="152.0" y2="83.0"/><line x1="141.4" y1="70.6" x2="135.7" y2="76.3"/><line x1="137.0" y1="60.0" x2="129.0" y2="60.0"/><line x1="141.4" y1="49.4" x2="135.7" y2="43.7"/><line x1="152.0" y1="45.0" x2="152.0" y2="37.0"/><line x1="162.6" y1="49.4" x2="168.3" y2="43.7"/>
    </g></svg>