<svg xmlns="http://www.w3.org/2000/svg" viewBox="0 0 200 200" fill="none" stroke="#ffffff" stroke-width="9" stroke-linecap="round" stroke-linejoin="round">
    <path d="M90 170 L90 148 C72 152 60 144 62 128 L50 120 C55 111 60 103 60 90 C60 56 88 32 119 36 C147 40 162 66 157 92 C154 113 142 126 130 134 L130 170"/>
    <g stroke-width="7">
      <circle cx="104" cy="84" r="13"/>
      <circle cx="104" cy="84" r="4"/>
      <line x1="117.0" y1="84.0" x2="124.0" y2="84.0"/><line x1="113.2" y1="93.2" x2="118.1" y2="98.1"/><line x1="104.0" y1="97.0" x2="104.0" y2="104.0"/><line x1="94.8" y1="93.2" x2="89.9" y2="98.1"/><line x1="91.0" y1="84.0" x2="84.0" y2="84.0"/><line x1="94.8" y1="74.8" x2="89.9" y2="69.9"/><line x1="104.0" y1="71.0" x2="104.0" y2="64.0"/><line x1="113.2" y1="74.8" x2="118.1" y2="69.9"/>
    </g></svg>